<svg version="1.2" xmlns="http://www.w3.org/2000/svg" viewBox="0 0 1005 912" width="1005" height="912">
	<title>더드림 로고 복사</title>
	<style>
		.s0 { fill: #fefefe } 
	</style>
	<path id="Path 0" fill-rule="evenodd" class="s0" d="m498.4 171c0.6 0.6 1.8 1 2.7 1 0.9 0 3.5 1.7 5.9 3.8 2.4 2 5.4 4.7 6.7 6 1.3 1.2 2.9 2.2 3.6 2.2 0.6 0.1 2.7 1.6 4.5 3.5 1.7 1.9 3.4 3.5 3.7 3.5 0.3 0 2.5 1.9 4.9 4.3 2.4 2.3 5.3 5 6.5 6 1.1 0.9 2.3 1.7 2.6 1.7 0.3 0 2.2 1.8 4.3 4 2 2.2 4 4 4.5 4 0.4 0 1.6 0.8 2.8 1.8 1.1 0.9 3.1 2.7 4.5 4 1.3 1.2 2.1 2.4 1.7 2.7-0.3 0.3 0.1 0.5 1 0.5 0.9 0 1.7 0.4 1.7 1 0 0.6 0.7 1 1.5 1 0.8 0 1.3 0.4 1 1-0.3 0.6 0 1 0.5 1 0.5 0 2.4 1.3 4 3 1.6 1.7 3.2 3 3.5 3 0.3 0 2 1.5 3.8 3.3 1.8 1.7 4.7 4.4 6.5 6 1.8 1.5 3.7 2.7 4.2 2.7 0.5 0 1 0.3 1 0.8-0.1 0.4 1.6 2.4 3.7 4.5 2.1 2 4.1 3.7 4.6 3.7 0.4 0 2.5 1.8 4.7 4 2.2 2.2 4.3 4 4.8 4 0.4 0 1.4 0.9 2.2 2 0.8 1.1 1.8 2 2.3 2 0.4 0 1.8 1 3.1 2.3 1.3 1.2 4 3.7 9.6 8.7v308l-2.8 2.8c-1.6 1.5-3.1 3.4-3.4 4.2-0.2 0.8-2 2.2-3.9 3.2-1.9 0.9-5.1 3.4-7.1 5.7-2.1 2.3-4.3 4.1-4.8 4.1-0.5 0-1 0.5-1 1 0 0.5-1.6 2.5-3.5 4.3-1.9 1.7-5.3 4.8-7.5 6.7-2.2 1.9-5.7 5.1-7.9 7-2.1 1.9-6 5.3-8.6 7.5-2.6 2.2-6.7 5.9-9.1 8.3-2.4 2.3-4.6 4.2-4.9 4.2-0.3 0-1.9 1.2-3.6 2.8-1.7 1.5-4.5 4.1-6.2 5.8-1.8 1.7-4.4 4.4-5.8 6-1.4 1.6-4.1 4.2-6 5.8-1.9 1.6-6.1 5.2-9.4 8-3.3 2.8-7.7 6.8-9.7 8.8-2.1 2.1-4.1 3.8-4.5 3.8-0.5 0-1.5 1.1-2.3 2.5-0.8 1.4-2.1 2.5-2.7 2.5-0.7 0-1.9 1.1-2.5 2.5-1.1 2.1-2 2.6-8.8 2.5v-427h3.5c1.9 0 5.3 0.6 7.5 1.2 2.2 0.7 4 1.6 4 2 0 0.5 1.6 0.8 3.5 0.8 1.9 0 3.5 0.4 3.5 1 0 0.6 1.1 1 2.5 1 1.4 0 2.5 0.3 2.5 0.7 0 0.5 1.7 1.6 3.7 2.7 2.1 1 4.6 2.2 5.6 2.7 0.9 0.5 2.4 0.9 3.2 0.9 0.8 0 1.5 0.4 1.5 1 0 0.6 1.1 1 5 1v159c0 87.5 0.3 159 0.8 159 0.4 0 2.3-1.4 4.2-3 1.9-1.6 4.1-3 4.8-3 0.6 0 1.2-0.5 1.2-1 0-0.5 0.7-1 1.5-1 0.8 0 2.6-1.4 4-3 1.4-1.6 2.8-3 3.3-3 0.4-0.1 1.6-1.1 2.7-2.3 1.1-1.3 4-3.7 6.5-5.4 2.5-1.8 4.8-3 5.3-2.8 0.4 0.3 1.2-0.4 1.7-1.5 0.5-1.1 1.7-2 2.5-2 1.3 0 1.5-16.7 1.5-144.5 0-127.8-0.2-144.5-1.5-144.5-0.8 0-1.5-0.4-1.5-1 0-0.6-0.7-1-1.5-1-0.8 0-3.1-1.6-5-3.5-1.9-1.9-4-3.5-4.5-3.5-0.5 0-2.5-1.1-4.2-2.5-1.8-1.3-4.1-3.1-5-4-1-0.8-2.5-1.5-3.3-1.5-0.8 0-2.9-1.4-4.5-3-1.6-1.6-3.7-3-4.5-3-0.8 0-2.9-1.4-4.5-3-1.6-1.7-3.9-3-5-3-1.1 0-2-0.4-2-1 0-0.6-0.5-1-1-1-0.5 0-2.7-1.6-4.7-3.5-2.1-1.9-4.4-3.5-5-3.5-0.7 0-1.3-0.4-1.3-1 0-0.6-1.1-1.2-2.5-1.5-1.4-0.3-2.5-0.9-2.5-1.5 0-0.6-0.7-1-1.5-1-0.8 0-3.1-1.6-5-3.5-1.9-1.9-3.9-3.5-4.5-3.5-0.5 0-2-0.6-3.2-1.3-1.2-0.6-3.4-2.3-7.7-6.2l-0.3-25.6c-0.2-20.8 0.1-25.7 1.2-26.7 1-0.8 1.7-0.9 2.5-0.2zm-16.5 3v27c0 22-0.3 27.3-1.4 28.5-0.8 0.8-1.7 1.5-2 1.5-0.3 0-3 2.3-5.8 5-2.9 2.8-5.6 5.1-6 5-0.5 0-2.8 2-5.3 4.5-2.5 2.5-4.7 4.5-5 4.5-0.3 0-1.7 1.1-3.2 2.4-1.6 1.4-3.9 3.4-7.8 6.4l-1 420.7-4.2 0.3c-2.4 0.1-4.3-0.3-4.3-0.8 0-0.5-1.1-1-2.5-1-1.4 0-2.5-0.5-2.5-1 0-0.5-1.1-1-2.5-1-1.4 0-2.5-0.5-2.5-1 0-0.5-1.1-1-2.5-1-1.4 0-2.7-0.5-3-1-0.3-0.5-1.4-1-2.5-1-1.1 0-2-0.5-2-1 0-0.5-1.1-1-2.5-1-1.4 0-2.5-0.5-2.5-1 0-0.5-1.1-1-2.5-1-1.4 0-2.5-0.5-2.5-1 0-0.5-1.1-1-5-1v-183.5c0-100.9-0.2-183.5-0.5-183.5-0.3 0-2.1 1.6-4 3.5-1.9 1.9-4.2 3.5-5 3.5-0.8 0-1.5 0.5-1.5 1 0 0.6-0.6 1-1.2 1-0.7 0-2.2 1.4-3.3 3-1.1 1.6-2.4 3-3 3-0.5 0-4.4 3.1-8.5 7-4.1 3.9-7.9 7-8.5 7-0.5 0-1.7 1.1-2.5 2.5-0.8 1.4-2.5 3.1-3.8 3.8-1.2 0.6-2.2 1.5-2.2 2 0 0.4-0.7 0.7-1.5 0.7-0.8 0-1.7 0.9-2 2-0.3 1.1-1.2 2-2 2-0.8 0-1.5 0.5-1.5 1 0 0.6-0.7 1-1.5 1-0.8 0-1.5 0.5-1.5 1 0 0.6-0.7 1-1.5 1-0.8 0-1.5 0.5-1.5 1 0 0.6-1.1 1-5 1v-20c0-12.7 0.4-20 1-20 0.6 0 4.3-3.3 8.3-7.4 3.9-4 7.9-8.3 8.7-9.5 0.8-1.2 2-2.1 2.5-2.1 0.6 0 1.7-0.9 2.5-2 0.8-1.1 2.1-2 2.8-2 0.6 0 1.2-0.7 1.2-1.5 0-0.8 0.5-1.5 1-1.5 0.6 0 2.4-1.4 4-3 1.6-1.6 3-3.3 3-3.7 0-0.5 0.7-1.8 1.7-3 1-1.2 2.3-2.2 2.8-2.2 0.6-0.1 3.4-2.3 6.3-5.1 2.8-2.7 5.7-5 6.2-5 0.6 0 0.9-0.3 0.9-0.7-0.1-0.5-0.1-1.4 0-2 0-0.7 1-1.3 2.1-1.3 1.1 0 2-0.5 2-1.1-0.1-0.7 2.9-4.1 6.5-7.5 3.6-3.5 6.8-6.4 7-6.4 0.2 0 1.6-1.1 3-2.5 1.4-1.4 2.5-3.2 2.5-4 0-0.8 0.3-1.5 0.8-1.5 0.4 0 2.6-1.6 4.8-3.7 2.3-2.1 5.5-4.8 7-5.9 1.6-1.2 3.8-3.8 4.9-5.8 1.1-2 4.1-4.7 6.8-6.3 2.6-1.5 4.8-3.1 4.8-3.4 0-0.3 1.4-2 3-3.7 1.7-1.8 3-3.4 3-3.7-0.1-0.3 1.1-1.8 2.7-3.5 1.5-1.6 3-3 3.4-3 0.4 0 3-2.2 5.7-5 2.8-2.7 5.5-5 6.1-5 0.5 0 1.6-1.6 2.3-3.5 0.8-2.1 2-3.5 3-3.5 0.9 0 1.7-0.4 1.7-1 0-0.5 1.6-1 7-1zm168.3 155.1c0.4-0.1 2.1 0.7 3.7 1.7 1.7 0.9 3 2 3 2.5 0 0.4 0.7 0.7 1.5 0.7 0.8 0 1.5 0.3 1.5 0.8-0.1 0.4 1.3 1.4 3 2.2 1.7 0.8 3.1 1.8 3 2.3 0 0.4 0.7 0.7 1.5 0.7 0.8 0 2.1 0.9 2.8 2 0.6 1.1 2 2 3 2 0.9 0 1.7 0.5 1.7 1 0 0.6 0.5 1 1 1 0.5 0 2.1 1 3.4 2.3 1.3 1.2 3.3 3 4.5 4 1.1 0.9 2.8 1.7 3.6 1.7 0.8 0 1.5 0.5 1.5 1 0 0.6 0.7 1 1.5 1 0.8 0 2.1 0.9 2.8 2 0.6 1.1 4.5 4 8.5 6.3 4 2.3 7.2 4.8 7.2 5.5 0 0.6 0.9 1.2 2 1.2 1.1 0 2 0.5 2 1 0 0.6 0.7 1 1.5 1 0.8 0 1.5 0.5 1.5 1 0 0.6 0.7 1 1.5 1 0.8 0 1.3 0.5 1 1-0.3 0.6 0.2 1 1 1 0.8 0 1.5 0.5 1.5 1 0 0.6 0.7 1 1.5 1 0.8 0 1.5 0.5 1.5 1 0 0.6 0.8 1 1.8 1 0.9 0 2.4 0.9 3.2 2 0.8 1.1 2.1 2 2.8 2 0.6 0 1.2 0.3 1.2 0.8-0.1 0.4 1.3 1.4 3 2.2 1.7 0.8 3.1 1.8 3 2.3 0 0.4 1.4 1.5 6 4.2v192l-4 2.5c-2.2 1.4-4 2.8-4 3.3 0 0.4-0.9 0.7-2 0.7-1.1 0-2 0.5-2 1 0 0.5-0.7 1-1.5 1-0.8 0-1.5 0.5-1.5 1 0 0.5-0.8 1.2-1.7 1.5-1 0.2-2.7 1.2-3.8 2.2-1.1 1-3.8 2.7-6 3.8-2.2 1.1-4.6 2.6-5.3 3.3-0.7 0.6-1.9 1.2-2.5 1.2-0.7 0-1.9 0.9-2.7 2-0.8 1.1-2.1 2-2.7 2-0.7 0-1.3 0.5-1.3 1 0 0.5-0.9 1-2 1-1.1 0-3.4 1.4-5 3-1.6 1.6-3.7 3-4.5 3-0.9 0-2.7 1.1-4 2.5-1.4 1.4-3.9 2.7-5.5 3-1.6 0.3-3 1-3 1.5 0 0.5-0.6 1.7-1.4 2.5-0.8 0.8-2.1 1.5-2.8 1.5-0.7 0-2.2 0.7-3.3 1.5-1.1 0.9-2.6 1.5-3.2 1.5-0.7 0-2.3 1.1-3.5 2.5-1.3 1.3-2.9 2.4-3.5 2.5-0.7 0-1.3 0.5-1.3 1 0 0.5-0.7 1-1.5 1-0.8 0-2.7 1.1-4.2 2.5-1.6 1.4-3.4 2.5-4 2.5-0.7 0-2-0.2-2.8-0.5-1.3-0.4-1.5-19-1.7-157.9-0.2-136.8 0-157.5 1.2-157.9 0.8-0.3 1.8-0.6 2.3-0.6zm-272.3 16.9v305h-4c-2.2 0-4.2-0.5-4.5-1-0.3-0.5-1.4-1-2.5-1-1.1 0-2-0.3-2-0.7 0-0.5-2-1.4-4.5-2-2.5-0.7-4.5-1.8-4.5-2.3 0-0.5-0.9-1-2-1-1.1 0-2-0.5-2-1 0-0.5-0.9-1-2-1-1.1 0-2-0.3-2-0.7 0-0.5-2-1.7-4.5-2.8-2.5-1.1-4.5-2.3-4.5-2.7 0-0.5-0.8-0.8-1.7-0.8-1 0-4.6-1.3-8-3-3.5-1.6-6.3-3.3-6.3-3.7 0-0.5-1.8-1.1-4-1.5-2.2-0.5-4.2-1.5-4.5-2.3-0.3-0.8-1.6-1.5-3-1.5-1.4 0-2.5-0.5-2.5-1 0-0.5-0.6-1-1.2-1-0.7 0-6.4-2.5-23.8-11v-96c0-90.5 0.1-96 1.8-96.7 0.9-0.4 3.4-2.4 5.5-4.5 2-2.1 4.4-3.8 5.2-3.8 0.8 0 1.5-0.4 1.5-1 0-0.5 0.7-1 1.5-1 0.8 0 1.5-0.4 1.5-1 0-0.5 0.6-1 1.3-1 0.6 0 1.9-0.9 2.7-2 0.8-1.1 2-2 2.5-2 0.6 0 1.7-1.1 2.5-2.5 0.8-1.4 1.8-2.5 2.3-2.5 0.4 0 1.4-0.6 2.3-1.2 0.9-0.7 3.8-3.4 6.5-6 2.7-2.7 5.2-4.8 5.7-4.8 0.4 0 1.4-0.9 2.2-2 0.8-1.1 2-2 2.5-2 0.6 0 1.7-0.9 2.5-2 0.8-1.1 2.1-2 2.8-2 0.6 0 1.2-0.4 1.2-1 0-0.5 0.6-1 1.3-1 0.6 0 1.7-1 2.4-2.3 0.7-1.3 3.3-3.4 5.8-4.5 2.5-1.2 4.7-2.9 5-3.7 0.3-0.8 0.9-1.5 1.4-1.5 0.5 0 3-2 5.4-4.5 2.5-2.5 4.8-4.5 5.1-4.5 0.3 0 1.6-0.8 2.7-1.7 1.2-1 2.7-2.3 3.3-3 0.6-0.7 2.6-1.2 7.6-1.3zm383.2 62.8l3.1 0.7c1.8 0.4 3.3 1.1 3.5 1.6 0.1 0.5 0.6 0.9 1.2 0.9 0.5 0 1.5 0.5 2.2 1 0.7 0.6 3.7 2.8 6.6 5 2.8 2.2 5.8 4 6.5 4 0.6 0 3.2 1.8 5.7 4 2.5 2.3 5.9 4.8 7.5 5.6 1.7 0.8 4.5 2.8 6.3 4.4 1.7 1.7 3.7 3 4.2 3 0.5 0 1 0.5 1 1 0 0.6 0.6 1 1.3 1 0.6-0.1 3.2 1.7 5.7 4 2.5 2.2 5.3 4 6.3 4 0.9 0 3.4 1.7 5.5 3.8 2.1 2 5.1 4.6 9.2 7.7v68.5l-3 1.3c-1.7 0.6-3 1.5-3 2 0 0.4-0.6 0.7-1.2 0.7-0.7 0-2.3 0.9-3.5 2-1.3 1.1-2.6 2-3 2-0.5 0-2.6 1.6-4.8 3.5-2.2 1.9-4.8 3.5-5.7 3.5-1 0-1.8 0.5-1.8 1 0 0.5-0.6 1-1.2 1-0.7-0.1-2.2 0.9-3.3 2-1.1 1.1-2.8 2.1-3.7 2-1 0-2.6 0.9-3.5 2-1 1.1-2.4 2-3 2-0.7 0-1.3 0.5-1.3 1 0 0.5-0.7 1-1.5 1-0.8 0-1.5 0.5-1.5 1 0 0.5-0.7 1-1.5 1-0.8 0-1.5 0.3-1.5 0.8 0.1 0.4-1.4 1.3-3.2 2.1-1.8 0.8-3.5 1.7-3.8 2-0.3 0.4-1.6 1.2-3 1.9-1.4 0.7-3.7 2.4-5.2 3.7-1.6 1.4-3.5 2.5-4.3 2.5-0.8 0-1.5 0.5-1.5 1 0 0.5-0.7 1-1.5 1-0.8 0-1.5 0.5-1.5 1 0 0.5-0.9 1-2 1-2 0-2-0.6-1.9-83.1zm-491.9 25.2c1.6 0 1.7 4.4 1.7 79.2 0 43.6 0.2 80.7 0.5 82.5 0.4 2.7 0.1 3.4-1.5 3.8-1.1 0.3-4-0.3-6.5-1.3-2.5-0.9-4.6-2.1-4.5-2.5 0-0.4-1.1-0.7-2.5-0.7-1.4 0-2.5-0.5-2.5-1 0-0.6-0.9-1-2-1-1.1 0-2-0.4-2-0.8 0-0.4-1.3-1.1-3-1.5-1.6-0.4-3.7-1.4-4.5-2.2-0.8-0.8-2.8-1.5-4.5-1.5-1.7 0-2.8-0.5-2.5-1 0.3-0.6-0.2-1-1-1-0.8 0-1.5-0.5-1.5-1 0-0.6-0.7-1-1.5-1-0.8 0-3.2-1-5.2-2.2-2.1-1.2-5.5-3-7.5-4-2.1-1-4.5-1.8-5.3-1.8-0.8 0-1.5-0.4-1.5-0.8 0-0.4-1-1.2-2.2-1.9-1.3-0.6-4-1.9-9.8-4.3v-83h2.3c1.3 0 2.7-0.9 3.5-2.2 0.7-1.3 2.7-3.2 4.5-4.3 1.7-1 4.6-3.3 6.2-5 1.7-1.7 4.3-3.7 5.8-4.5 1.5-0.9 2.7-1.9 2.7-2.3 0-0.4 0.6-0.7 1.3-0.7 0.6 0 2.3-1.4 3.7-3 1.4-1.7 3.1-3 3.8-3 0.6 0 2-1.1 3-2.5 0.9-1.3 2.1-2.1 2.5-1.7 0.4 0.4 0.7-0.1 0.7-1.1 0-0.9 0.3-1.7 0.8-1.7 0.4 0 2.1-1.2 3.7-2.6 1.7-1.3 3.3-2.5 3.7-2.5 0.3 0.1 2.1-1.3 4-3 1.8-1.7 4-3.7 4.8-4.5 0.8-0.8 2.1-1.4 2.8-1.4 0.6 0 1.1-0.4 1.1-0.9-0.1-0.5 1.4-1.6 3.2-2.5 1.9-0.9 4.2-1.6 5.2-1.6zm214.7 319h10v76h-10v-42h-21v-8h21zm150 0h11v43h-11zm-48 3h37v23h-27v7.5l13.2-0.8c7.3-0.4 14.4-1 15.8-1.3 2.3-0.5 2.6-0.2 3.1 3.2 0.3 2.2 0.4 4.1 0.1 4.4-0.2 0.3-2.3 0.8-4.6 1.2-2.2 0.4-11.6 0.7-37.6 0.8v-23h26v-7h-26zm-154 4h39v8h-28v32.5l15.2-0.9c13.5-0.7 15.4-0.6 16.1 0.8 0.4 0.9 0.7 2.7 0.7 4.1 0 1.8-0.6 2.6-2.2 3-1.3 0.2-11 0.5-40.8 0.5zm84 0h48v8h-38v19h39v8h-49zm-171 4l-1.7 2.7c-0.9 1.5-2.5 4.1-3.4 5.8-1 1.6-2.8 5.7-3.9 9-1.2 3.4-2.4 9.8-2.7 15-0.4 6.6-0.1 10.7 1.1 15.5 0.9 3.6 2.8 8.7 4.1 11.5 1.3 2.7 3.3 6.4 6.5 11.5h-10l-4-6.3c-2.2-3.4-4.8-8.5-5.8-11.2-1.2-3.7-1.7-8.3-1.7-17.5 0-9.8 0.4-13.8 2-18.5 1.1-3.3 3.7-8.6 5.7-11.8 3.8-5.7 3.8-5.7 13.8-5.7zm59.8 0c4.5 0 4.8 0.2 7.9 4.7 1.8 2.6 4.1 6.8 5.1 9.3 1.1 2.5 2.5 7.4 3.2 11 0.8 4 1.1 9.7 0.7 15-0.3 4.7-1.5 11.2-2.7 14.5-1.1 3.3-3.6 8.3-5.5 11.2-3.4 5.2-3.6 5.3-8.5 5.3-2.7 0-5-0.2-5-0.5 0-0.3 1.4-2.7 3.2-5.3 1.8-2.6 4.3-7.9 5.7-11.7 1.9-5.6 2.4-9.1 2.5-17 0-7.6-0.5-11.7-2.1-17-1.2-3.9-3.8-9.7-5.8-13-2-3.3-3.6-6.1-3.5-6.3 0-0.1 2.1-0.2 4.8-0.2zm-53.8 9h42v6h-8c-4.4 0-8 0.3-8 0.7 0 0.4 1 1.7 2.2 2.9 1.3 1.2 3.4 2.7 4.8 3.4 1.4 0.7 4.9 2 13.3 4.5l-5.1 6-5.3-1.7c-3-0.9-7.5-3.3-14.9-8.8l-5.2 3.7c-2.9 2.1-7.5 4.4-10.3 5.2-4.9 1.4-5 1.4-7.2-1.3-1.3-1.4-2.2-2.8-2-3.1 0.1-0.3 2.2-1 4.7-1.6 2.5-0.6 6.4-2.1 8.8-3.5 2.3-1.3 4.7-3.3 5.2-4.4 1-1.9 0.7-2-15-2zm-6 26h54v6h-23v22h-8v-22h-23zm250 0h50v28h-50zm11 20h28v-12h-28zm-101-9h70v8h-70z"/>
</svg>